{
  "accessors": [
    {
      "bufferView": 2,
      "componentType": 5126,
      "count": 6853,
      "max": [
        26.519599914550781,
        50.340801239013672,
        102.99140167236328
      ],
      "min": [
        -29.4906005859375,
        -7.6778998374938965,
        44.415599822998047
      ],
      "type": "VEC3"
    },
    {
      "bufferView": 2,
      "byteOffset": 82236,
      "componentType": 5126,
      "count": 6853,
      "max": [
        1,
        1,
        1
      ],
      "min": [
        -1,
        -1,
        -1
      ],
      "type": "VEC3"
    },
    {
      "bufferView": 3,
      "componentType": 5126,
      "count": 6853,
      "max": [
        1,
        1,
        1,
        1
      ],
      "min": [
        -1,
        -1,
        -1,
        -1
      ],
      "type": "VEC4"
    },
    {
      "bufferView": 1,
      "componentType": 5126,
      "count": 6853,
      "max": [
        0.99000000953674316,
        0.99000000953674316
      ],
      "min": [
        0.0099999997764825821,
        0.011975999921560287
      ],
      "type": "VEC2"
    },
    {
      "bufferView": 0,
      "componentType": 5125,
      "count": 19614,
      "max": [
        6852
      ],
      "min": [
        0
      ],
      "type": "SCALAR"
    },
    {
      "bufferView": 2,
      "byteOffset": 164472,
      "componentType": 5126,
      "count": 9122,
      "max": [
        58.759201049804688,
        71.820602416992188,
        87.29010009765625
      ],
      "min": [
        -61.835800170898438,
        -69.67669677734375,
        0.36320099234580994
      ],
      "type": "VEC3"
    },
    {
      "bufferView": 2,
      "byteOffset": 273936,
      "componentType": 5126,
      "count": 9122,
      "max": [
        1,
        1,
        0.99998700618743896
      ],
      "min": [
        -1,
        -1,
        -0.99998611211776733
      ],
      "type": "VEC3"
    },
    {
      "bufferView": 3,
      "byteOffset": 109648,
      "componentType": 5126,
      "count": 9122,
      "max": [
        1,
        1,
        1,
        1
      ],
      "min": [
        -1,
        -1,
        -1,
        -1
      ],
      "type": "VEC4"
    },
    {
      "bufferView": 1,
      "byteOffset": 54824,
      "componentType": 5126,
      "count": 9122,
      "max": [
        0.99949997663497925,
        0.99510002136230469
      ],
      "min": [
        0.00050000002374872565,
        0.00050000002374872565
      ],
      "type": "VEC2"
    },
    {
      "bufferView": 0,
      "byteOffset": 78456,
      "componentType": 5125,
      "count": 38016,
      "max": [
        9121
      ],
      "min": [
        0
      ],
      "type": "SCALAR"
    },
    {
      "bufferView": 2,
      "byteOffset": 383400,
      "componentType": 5126,
      "count": 9989,
      "max": [
        43.219501495361328,
        57.088401794433594,
        87.736198425292969
      ],
      "min": [
        -39.996898651123047,
        -45.342201232910156,
        4.2821011543273926
      ],
      "type": "VEC3"
    },
    {
      "bufferView": 2,
      "byteOffset": 503268,
      "componentType": 5126,
      "count": 9989,
      "max": [
        1,
        0.99994421005249023,
        0.9999886155128479
      ],
      "min": [
        -1,
        -0.99988538026809692,
        -0.99998766183853149
      ],
      "type": "VEC3"
    },
    {
      "bufferView": 3,
      "byteOffset": 255600,
      "componentType": 5126,
      "count": 9989,
      "max": [
        0.99999880790710449,
        1,
        0.99999892711639404,
        1
      ],
      "min": [
        -1,
        -1,
        -0.9999738335609436,
        1
      ],
      "type": "VEC4"
    },
    {
      "bufferView": 1,
      "byteOffset": 127800,
      "componentType": 5126,
      "count": 9989,
      "max": [
        0.99949997663497925,
        0.99559998512268066
      ],
      "min": [
        0.00050000002374872565,
        0.00050000002374872565
      ],
      "type": "VEC2"
    },
    {
      "bufferView": 0,
      "byteOffset": 230520,
      "componentType": 5125,
      "count": 44742,
      "max": [
        9988
      ],
      "min": [
        0
      ],
      "type": "SCALAR"
    },
    {
      "bufferView": 2,
      "byteOffset": 623136,
      "componentType": 5126,
      "count": 6593,
      "max": [
        45.199199676513672,
        59.256900787353516,
        87.29010009765625
      ],
      "min": [
        -43.227199554443359,
        -45.196701049804688,
        5.6619992256164551
      ],
      "type": "VEC3"
    },
    {
      "bufferView": 2,
      "byteOffset": 702252,
      "componentType": 5126,
      "count": 6593,
      "max": [
        1,
        1,
        1
      ],
      "min": [
        -1,
        -1,
        -1
      ],
      "type": "VEC3"
    },
    {
      "bufferView": 3,
      "byteOffset": 415424,
      "componentType": 5126,
      "count": 6593,
      "max": [
        1,
        1,
        1,
        1
      ],
      "min": [
        -1,
        -1,
        -1,
        -1
      ],
      "type": "VEC4"
    },
    {
      "bufferView": 1,
      "byteOffset": 207712,
      "componentType": 5126,
      "count": 6593,
      "max": [
        0.99570000171661377,
        0.99559998512268066
      ],
      "min": [
        0.00050000002374872565,
        0.00050000002374872565
      ],
      "type": "VEC2"
    },
    {
      "bufferView": 0,
      "byteOffset": 409488,
      "componentType": 5125,
      "count": 21156,
      "max": [
        6592
      ],
      "min": [
        0
      ],
      "type": "SCALAR"
    },
    {
      "bufferView": 2,
      "byteOffset": 781368,
      "componentType": 5126,
      "count": 4804,
      "max": [
        30.541801452636719,
        51.726200103759766,
        86.909797668457031
      ],
      "min": [
        -28.705400466918945,
        -47.375701904296875,
        3.6139979362487793
      ],
      "type": "VEC3"
    },
    {
      "bufferView": 2,
      "byteOffset": 839016,
      "componentType": 5126,
      "count": 4804,
      "max": [
        0.99996399879455566,
        1,
        0.99996274709701538
      ],
      "min": [
        -0.99996435642242432,
        -1,
        -0.99996274709701538
      ],
      "type": "VEC3"
    },
    {
      "bufferView": 3,
      "byteOffset": 520912,
      "componentType": 5126,
      "count": 4804,
      "max": [
        0.99995440244674683,
        0.9999956488609314,
        0.99984490871429443,
        1
      ],
      "min": [
        -0.99991410970687866,
        -0.99999046325683594,
        -0.99992471933364868,
        1
      ],
      "type": "VEC4"
    },
    {
      "bufferView": 1,
      "byteOffset": 260456,
      "componentType": 5126,
      "count": 4804,
      "max": [
        0.98549997806549072,
        0.99000000953674316
      ],
      "min": [
        0.0099999997764825821,
        0.0099999997764825821
      ],
      "type": "VEC2"
    },
    {
      "bufferView": 0,
      "byteOffset": 494112,
      "componentType": 5125,
      "count": 18354,
      "max": [
        4803
      ],
      "min": [
        0
      ],
      "type": "SCALAR"
    }
  ],
  "asset": {
    "extras": {
      "author": "alsheuski (https://sketchfab.com/alsheuski)",
      "license": "CC-BY-4.0 (http://creativecommons.org/licenses/by/4.0/)",
      "source": "https://sketchfab.com/3d-models/landfill-dealer-house-69cfbe44f84c48ff9b94e4b33871bf94",
      "title": "Landfill dealer house"
    },
    "generator": "Sketchfab-6.49.1",
    "version": "2.0"
  },
  "bufferViews": [
    {
      "buffer": 0,
      "byteLength": 567528,
      "byteOffset": 0,
      "name": "floatBufferViews",
      "target": 34963
    },
    {
      "buffer": 0,
      "byteLength": 298888,
      "byteOffset": 567528,
      "byteStride": 8,
      "name": "floatBufferViews",
      "target": 34962
    },
    {
      "buffer": 0,
      "byteLength": 896664,
      "byteOffset": 866416,
      "byteStride": 12,
      "name": "floatBufferViews",
      "target": 34962
    },
    {
      "buffer": 0,
      "byteLength": 597776,
      "byteOffset": 1763080,
      "byteStride": 16,
      "name": "floatBufferViews",
      "target": 34962
    }
  ],
  "buffers": [
    {
      "byteLength": 2360856,
      "uri": "scene.bin"
    }
  ],
  "extensionsUsed": [
    "KHR_materials_unlit"
  ],
  "images": [
    {
      "uri": "textures/Body_hi_baseColor.png"
    },
    {
      "uri": "textures/Body_low_baseColor.png"
    },
    {
      "uri": "textures/tubes_baseColor.png"
    }
  ],
  "materials": [
    {
      "doubleSided": true,
      "extensions": {
        "KHR_materials_unlit": {}
      },
      "name": "Body_hi",
      "pbrMetallicRoughness": {
        "baseColorFactor": [
          1,
          1,
          1,
          1
        ],
        "baseColorTexture": {
          "index": 0,
          "texCoord": 0
        },
        "metallicFactor": 0,
        "roughnessFactor": 1
      }
    },
    {
      "doubleSided": true,
      "emissiveFactor": [
        0,
        0,
        0
      ],
      "extensions": {
        "KHR_materials_unlit": {}
      },
      "name": "Body_low",
      "pbrMetallicRoughness": {
        "baseColorFactor": [
          1,
          1,
          1,
          1
        ],
        "baseColorTexture": {
          "index": 1,
          "texCoord": 0
        },
        "metallicFactor": 0,
        "roughnessFactor": 1
      }
    },
    {
      "doubleSided": true,
      "emissiveFactor": [
        0,
        0,
        0
      ],
      "extensions": {
        "KHR_materials_unlit": {}
      },
      "name": "tubes",
      "pbrMetallicRoughness": {
        "baseColorFactor": [
          1,
          1,
          1,
          1
        ],
        "baseColorTexture": {
          "index": 2,
          "texCoord": 0
        },
        "metallicFactor": 0,
        "roughnessFactor": 1
      }
    }
  ],
  "meshes": [
    {
      "primitives": [
        {
          "attributes": {
            "NORMAL": 1,
            "POSITION": 0,
            "TANGENT": 2,
            "TEXCOORD_0": 3
          },
          "indices": 4,
          "material": 0,
          "mode": 4
        }
      ]
    },
    {
      "primitives": [
        {
          "attributes": {
            "NORMAL": 6,
            "POSITION": 5,
            "TANGENT": 7,
            "TEXCOORD_0": 8
          },
          "indices": 9,
          "material": 1,
          "mode": 4
        }
      ]
    },
    {
      "primitives": [
        {
          "attributes": {
            "NORMAL": 11,
            "POSITION": 10,
            "TANGENT": 12,
            "TEXCOORD_0": 13
          },
          "indices": 14,
          "material": 1,
          "mode": 4
        }
      ]
    },
    {
      "primitives": [
        {
          "attributes": {
            "NORMAL": 16,
            "POSITION": 15,
            "TANGENT": 17,
            "TEXCOORD_0": 18
          },
          "indices": 19,
          "material": 1,
          "mode": 4
        }
      ]
    },
    {
      "primitives": [
        {
          "attributes": {
            "NORMAL": 21,
            "POSITION": 20,
            "TANGENT": 22,
            "TEXCOORD_0": 23
          },
          "indices": 24,
          "material": 2,
          "mode": 4
        }
      ]
    }
  ],
  "nodes": [
    {
      "children": [
        1
      ],
      "name": "RootNode (gltf orientation matrix)",
      "rotation": [
        -0.70710678118654746,
        -0,
        -0,
        0.70710678118654757
      ]
    },
    {
      "children": [
        2
      ],
      "name": "RootNode (model correction matrix)"
    },
    {
      "children": [
        3,
        4,
        5,
        6,
        7
      ],
      "name": "apocalypse houm final.obj.cleaner.materialmerger.gles"
    },
    {
      "mesh": 0,
      "name": ""
    },
    {
      "mesh": 1,
      "name": ""
    },
    {
      "mesh": 2,
      "name": ""
    },
    {
      "mesh": 3,
      "name": ""
    },
    {
      "mesh": 4,
      "name": ""
    }
  ],
  "samplers": [
    {
      "magFilter": 9729,
      "minFilter": 9987,
      "wrapS": 10497,
      "wrapT": 10497
    }
  ],
  "scene": 0,
  "scenes": [
    {
      "name": "OSG_Scene",
      "nodes": [
        0
      ]
    }
  ],
  "textures": [
    {
      "sampler": 0,
      "source": 0
    },
    {
      "sampler": 0,
      "source": 1
    },
    {
      "sampler": 0,
      "source": 2
    }
  ]
}

